ply
format ascii 1.0
comment PCL generated
element vertex 42
property float x
property float y
property float z
element camera 1
property float view_px
property float view_py
property float view_pz
property float x_axisx
property float x_axisy
property float x_axisz
property float y_axisx
property float y_axisy
property float y_axisz
property float z_axisx
property float z_axisy
property float z_axisz
property float focal
property float scalex
property float scaley
property float centerx
property float centery
property int viewportx
property int viewporty
property float k1
property float k2
end_header
0 0 0
0 36 0
0 72 0
0 108 0
0 144 0
0 180 0
36 0 0
36 36 0
36 72 0
36 108 0
36 144 0
36 180 0
72 0 0
72 36 0
72 72 0
72 108 0
72 144 0
72 180 0
108 0 0
108 36 0
108 72 0
108 108 0
108 144 0
108 180 0
144 0 0
144 36 0
144 72 0
144 108 0
144 144 0
144 180 0
180 0 0
180 36 0
180 72 0
180 108 0
180 144 0
180 180 0
216 0 0
216 36 0
216 72 0
216 108 0
216 144 0
216 180 0
0 0 0 1 0 0 0 1 0 0 0 1 0 0 0 0 0 42 1 0 0
